<svg width="20" height="22" viewBox="0 0 20 22" fill="none" xmlns="http://www.w3.org/2000/svg">
<path d="M9.99997 9.44118L9.99997 7.02941" stroke="#3FB5C4" stroke-width="1.5" stroke-linecap="round"/>
<rect x="1.10291" y="2.95588" width="17.7941" height="17.7941" rx="8.89706" stroke="#3FB5C4" stroke-width="1.5"/>
<path d="M9.99997 2.60784V1" stroke="#3FB5C4" stroke-width="1.5"/>
<path d="M8.79407 0.25C8.37985 0.25 8.04407 0.585786 8.04407 1C8.04407 1.41421 8.37985 1.75 8.79407 1.75V0.25ZM11.2058 1.75C11.62 1.75 11.9558 1.41421 11.9558 1C11.9558 0.585786 11.62 0.25 11.2058 0.25V1.75ZM8.79407 1.75H11.2058V0.25H8.79407V1.75Z" fill="#3FB5C4"/>
<path d="M3.41407 5.26547L2.68805 4.53944" stroke="#3FB5C4" stroke-width="1.5" stroke-linecap="round"/>
<path d="M16.7099 5.14298L17.3742 4.47873" stroke="#3FB5C4" stroke-width="1.5" stroke-linecap="round"/>
<circle cx="9.99996" cy="11.8529" r="1.66176" stroke="#3FB5C4" stroke-width="1.5"/>
</svg>
