<svg width="18" height="18" viewBox="0 0 18 18" fill="none" xmlns="http://www.w3.org/2000/svg">
<path fill-rule="evenodd" clip-rule="evenodd" d="M9 12.0001C6.92893 12.0001 5.25 10.3212 5.25 8.25012H3.75C3.75 10.8956 5.70673 13.0841 8.25185 13.4472C8.25062 13.4647 8.25 13.4824 8.25 13.5002V15.7502C8.25 16.1645 8.58579 16.5002 9 16.5002C9.41421 16.5002 9.75 16.1645 9.75 15.7502V13.5002C9.75 13.4824 9.74938 13.4647 9.74815 13.4472C12.2933 13.0841 14.25 10.8956 14.25 8.25012H12.75C12.75 10.3212 11.0711 12.0001 9 12.0001Z" fill="#3FB5C4"/>
<rect x="6.75" y="1.49994" width="4.5" height="9" rx="2.25" fill="#3FB5C4"/>
</svg>
