<svg width="40" height="40" viewBox="0 0 40 40" fill="none" xmlns="http://www.w3.org/2000/svg">
<rect x="2.1" y="2.1" width="35.8" height="35.8" rx="17.9" fill="url(#paint0_linear)" stroke="#FFF4EF" stroke-width="4.2"/>
<mask id="mask0" mask-type="alpha" maskUnits="userSpaceOnUse" x="4" y="4" width="32" height="32">
<rect x="4.60257" y="4.60256" width="30.7949" height="30.7949" rx="15.3974" fill="#3FB5C4" stroke="#3FB5C4"/>
</mask>
<g mask="url(#mask0)">
<path fill-rule="evenodd" clip-rule="evenodd" d="M4.1026 2.0513H3.05176e-05V38.9744H36.9231V38.6474H20.2439H4.1026L4.10259 25.4705C5.53675 24.8771 9.0222 24.8287 10.4564 25.3256C12.6971 26.1019 15.8342 28.3008 16.7616 29.2938C17.689 30.2869 18.3551 30.9262 19.0834 31.3508C19.8116 31.7755 21.3802 31.8688 22.2994 31.4807C23.2188 31.0925 24.5657 29.7194 24.8534 29.2938C25.1411 28.8683 25.6797 27.6546 25.6797 26.1019C25.6797 24.5493 26.3659 23.4957 27.8691 21.8371C28.9296 20.6671 29.7831 18.8671 30.2313 17.6179C30.6794 16.3688 31.2176 14.7531 30.93 14.4693C30.6422 14.1856 29.7792 15.1786 29.2757 15.817C28.7724 16.4554 27.7104 17.6179 26.7581 18.5052C25.8057 19.3924 24.6604 20.3315 24.0131 20.6861C23.4953 20.9698 23.5378 20.7523 23.5755 20.5593L23.5756 20.5592C23.585 20.511 23.5941 20.4644 23.5941 20.4275C23.733 19.4478 23.845 18.5606 23.845 17.8952C23.845 17.2298 23.7058 15.817 23.3782 15.817C23.1469 15.817 22.9442 16.1346 22.6755 16.5557L22.6754 16.5559C22.5638 16.7308 22.4407 16.9236 22.2994 17.1189C21.8183 17.7843 20.7951 18.6715 20.1478 18.6715C19.5004 18.6715 18.9193 18.2286 18.4877 17.0228C18.3314 16.586 18.2034 16.1213 18.0798 15.6725L18.0783 15.667C17.9786 15.3054 17.8818 14.9541 17.7752 14.6362C18.61 13.3059 19.0275 12.5186 19.0275 12.2744C19.0275 11.8488 18.2363 11.707 17.7329 11.707C17.4274 11.707 16.9364 12.2295 16.469 12.7671C16.3795 12.6855 16.285 12.602 16.186 12.5174C16.4384 11.9223 16.6095 11.221 16.6095 10.9977C16.6095 10.643 15.6025 8.86974 14.9553 8.86974C14.5504 8.86974 14.0188 9.49422 13.3607 10.7432C13.1049 10.6421 12.847 10.5583 12.5902 10.4972L12.2397 10.4136L12.2382 10.4132C10.7225 10.0511 5.44019 9.6312 4.10259 9.53638L4.1026 2.0513ZM19.235 23.9263C18.6983 24.0255 17.2335 23.8443 16.7331 23.0248C16.5232 22.6811 16.6076 22.3556 16.6874 22.0481L16.6874 22.0478C16.7473 21.817 16.8045 21.5964 16.7331 21.3856C16.5663 20.8939 17.7339 21.897 18.401 22.7165C18.6122 22.9759 18.803 23.1868 18.9558 23.3557L18.956 23.3558C19.2857 23.7203 19.4382 23.8888 19.235 23.9263Z" fill="#FFF4EF"/>
</g>
<defs>
<linearGradient id="paint0_linear" x1="20" y1="0" x2="20" y2="40" gradientUnits="userSpaceOnUse">
<stop stop-color="#FFB402"/>
<stop offset="1" stop-color="#FF1A4B"/>
</linearGradient>
</defs>
</svg>
