<svg width="19" height="19" viewBox="0 0 19 19" fill="none" xmlns="http://www.w3.org/2000/svg">
<path d="M7.82271 4.21574C9.69346 2.27997 12.8418 2.28173 14.8418 4.21459C16.8419 6.14745 16.9512 9.29388 15.0804 11.2297L10.159 16.3222C8.78221 17.7468 6.46446 17.7455 4.99282 16.3233C3.52109 14.901 3.44069 12.5847 4.81745 11.1601L9.29152 6.53048C10.1753 5.61601 11.6616 5.61785 12.6048 6.52939C13.548 7.44093 13.6006 8.92629 12.7169 9.84076L8.46651 14.2388C8.19878 14.5159 7.75245 14.5136 7.46933 14.24C7.18628 13.9664 7.16874 13.5204 7.43647 13.2434L11.6868 8.84532C12.0365 8.4835 12.0181 7.89199 11.6405 7.52715C11.263 7.1623 10.6712 7.16411 10.3216 7.52593L5.84749 12.1555C5.00434 13.028 5.0512 14.45 5.95715 15.3255C6.863 16.2009 8.28577 16.1992 9.12893 15.3267L14.0504 10.2342C15.3866 8.85152 15.3118 6.59851 13.8775 5.21244C12.4432 3.82636 10.189 3.82849 8.85275 5.21119L4.15503 10.0722C3.8873 10.3492 3.44097 10.3469 3.15785 10.0733C2.8748 9.79978 2.85726 9.35379 3.12499 9.07675L7.82271 4.21574Z" fill="#3FB5C4" stroke="#3FB5C4" stroke-width="0.1"/>
</svg>
