<svg width="12" height="13" viewBox="0 0 12 13" fill="none" xmlns="http://www.w3.org/2000/svg">
<path d="M0.753489 13C0.334885 13 0 12.6579 0 12.2303C0 10.5482 0.669767 9.00877 1.75814 7.89693C2.26047 7.38377 2.87442 6.95614 3.51628 6.67105C3.46047 6.61403 3.40465 6.58553 3.34884 6.52851C2.67907 5.8443 2.26047 4.875 2.26047 3.82017C2.26047 2.76535 2.67907 1.79605 3.34884 1.11184C4.01861 0.427631 4.96744 0 6 0C7.03256 0 7.9814 0.427631 8.65116 1.11184C9.32093 1.79605 9.73953 2.76535 9.73953 3.82017C9.73953 4.875 9.32093 5.8443 8.65116 6.52851C8.59535 6.58553 8.53953 6.61403 8.48372 6.67105C9.15349 6.98465 9.73953 7.38377 10.2419 7.89693C11.3302 9.00877 12 10.5482 12 12.2303C12 12.6579 11.6651 13 11.2465 13C10.8279 13 10.493 12.6579 10.493 12.2303C10.493 10.9759 9.9907 9.80702 9.18139 8.98026C8.37209 8.15351 7.22791 7.64035 6 7.64035C4.77209 7.64035 3.62791 8.15351 2.8186 8.98026C2.0093 9.80702 1.50698 10.9474 1.50698 12.2303C1.50698 12.6579 1.17209 13 0.753489 13ZM4.4093 5.44517C4.82791 5.87281 5.38605 6.12939 6 6.12939C6.61395 6.12939 7.17209 5.87281 7.5907 5.44517C8.0093 5.01754 8.26046 4.44737 8.26046 3.82017C8.26046 3.19298 8.0093 2.62281 7.5907 2.19517C7.17209 1.76754 6.61395 1.51096 6 1.51096C5.38605 1.51096 4.82791 1.76754 4.4093 2.19517C3.9907 2.62281 3.73953 3.19298 3.73953 3.82017C3.73953 4.44737 3.9907 5.01754 4.4093 5.44517Z" fill="#3FB5C4"/>
</svg>
