<svg width="14" height="9" viewBox="0 0 14 9" fill="none" xmlns="http://www.w3.org/2000/svg">
<path d="M7.66558 7.81805L7.66558 7.81804L12.8252 2.5379C12.8252 2.53789 12.8252 2.53788 12.8252 2.53788C13.1916 2.16314 13.1916 1.55647 12.8252 1.18188C12.4579 0.806029 11.8612 0.806037 11.4939 1.18192L6.99991 5.78086L2.50609 1.18206L2.50608 1.18204C2.13864 0.806181 1.542 0.806155 1.17466 1.18204L7.66558 7.81805ZM7.66558 7.81805C7.48221 8.00566 7.24117 8.1 6.99989 8.1C6.75873 8.1 6.51785 8.00583 6.33439 7.81819L6.33438 7.81818M7.66558 7.81805L6.33438 7.81818M6.33438 7.81818L1.17465 2.53801C0.808463 2.16329 0.808438 1.55667 1.17465 1.18205L6.33438 7.81818Z" fill="#D4DCE7" stroke="#F1F4F8" stroke-width="0.2"/>
</svg>
